<svg version="1.1" id="Layer_1" xmlns="http://www.w3.org/2000/svg" xmlns:xlink="http://www.w3.org/1999/xlink" x="0px" y="0px"
	 width="100%" viewBox="0 0 137 136" enable-background="new 0 0 137 136" xml:space="preserve">
<path fill="#FFFFFF" opacity="1.000000" stroke="none" 
	d="
M64.000000,137.000000 
	C43.033089,137.000000 22.066179,137.000000 1.049635,137.000000 
	C1.049635,91.771233 1.049635,46.542400 1.049635,1.000000 
	C27.020054,1.000000 53.041370,1.000000 79.390343,1.334610 
	C78.135063,2.456406 76.357048,2.999684 75.007645,4.078875 
	C71.653023,6.761745 71.146225,11.545566 74.059593,14.882339 
	C76.815018,18.038221 79.881592,17.922512 82.841454,14.752245 
	C83.817360,13.706975 85.173241,12.957542 86.462059,12.273960 
	C91.058319,9.836132 91.205643,5.859669 86.709572,2.967862 
	C85.536453,2.213331 84.239876,1.650743 83.000000,0.999999 
	C101.282112,1.000000 119.564217,1.000000 138.000000,1.000000 
	C138.000000,34.687416 138.000000,68.375053 137.632904,102.415497 
	C136.515121,100.691017 136.111115,98.393311 134.954514,96.574089 
	C129.575287,88.113152 121.233719,83.841057 112.008644,80.494507 
	C113.406944,68.121536 114.812271,56.176373 116.217598,44.231209 
	C109.205002,51.365349 102.659508,58.283318 92.336166,54.750629 
	C85.917282,52.554070 79.625702,48.905548 74.415184,44.547775 
	C68.686440,39.756592 70.143486,32.170422 70.993668,25.376930 
	C59.674721,33.470169 47.545658,40.383976 48.367485,56.855888 
	C46.425949,54.118156 44.845661,51.392441 44.071899,48.454319 
	C42.416439,42.168224 37.703350,39.193157 32.263557,37.214451 
	C28.665524,35.905678 25.773960,37.283924 25.245054,41.500404 
	C24.695108,45.884594 24.846569,50.403992 23.873846,54.678223 
	C21.769499,63.924927 23.752096,72.880814 24.609417,81.958313 
	C19.347038,84.689819 14.094126,86.891701 9.651600,90.186333 
	C1.602460,96.155632 -1.472660,108.306137 5.793086,116.300858 
	C17.300852,128.963211 32.587337,132.845444 48.737030,134.687469 
	C48.748287,134.641617 48.779091,134.545334 49.187458,134.758087 
	C52.114498,135.266327 54.633175,135.561844 57.409431,135.934723 
	C58.522526,135.955353 59.378036,135.898621 60.918083,135.918640 
	C62.401749,136.330261 63.200874,136.665131 64.000000,137.000000 
M113.508781,6.004673 
	C107.835495,0.501763 103.391266,1.573029 100.148872,9.244745 
	C103.396469,10.952375 106.602562,12.753408 109.919632,14.319361 
	C111.068550,14.861750 113.093040,15.452979 113.663704,14.911398 
	C114.773323,13.858338 115.576523,12.047896 115.674294,10.498666 
	C115.754532,9.227108 114.629143,7.879468 113.508781,6.004673 
M85.084465,36.254601 
	C86.516556,38.812977 88.093681,42.796432 91.404800,40.480320 
	C94.087921,38.603493 95.375183,34.548115 96.809685,31.253557 
	C97.042633,30.718567 94.946686,28.336285 93.715294,28.140450 
	C88.232643,27.268517 86.419876,31.239012 85.084465,36.254601 
M113.989113,32.727146 
	C113.071693,31.413910 112.383591,29.818428 111.188255,28.847246 
	C108.829872,26.931122 103.658257,28.162933 104.286575,30.050297 
	C105.346367,33.233688 107.188805,37.209507 109.853386,38.531410 
	C112.980225,40.082645 113.519112,36.075184 113.989113,32.727146 
M101.787003,46.405628 
	C102.779022,46.495003 104.487114,46.933144 104.642143,46.614845 
	C105.413773,45.030575 105.776756,43.247261 106.352264,41.301914 
	C103.336426,41.301914 101.264885,41.301914 97.816948,41.301914 
	C99.315567,43.446964 100.220154,44.741734 101.787003,46.405628 
z"/>
<path fill="#FFFFFF" opacity="1.000000" stroke="none" 
	d="
M138.000000,108.000000 
	C138.000000,117.620468 138.000000,127.240936 138.000000,137.000000 
	C117.312622,137.000000 96.624969,137.000000 75.938782,136.538147 
	C76.815598,136.000534 77.690956,135.924789 78.805008,135.937500 
	C80.220436,135.792450 81.397163,135.558929 82.609772,135.309845 
	C82.645645,135.294266 82.890045,135.369400 82.955765,135.388519 
	C83.021492,135.407654 83.147446,135.354004 83.323456,135.610260 
	C85.257576,135.460190 87.015686,135.053879 89.054108,134.799484 
	C90.170380,134.919632 91.006340,134.887863 92.159378,134.923370 
	C93.593201,134.576828 94.709953,134.163025 96.071777,133.832932 
	C96.828018,133.896454 97.339172,133.876282 98.188339,133.923111 
	C100.673599,133.278824 102.820862,132.567535 105.305359,131.936890 
	C106.098572,131.963745 106.554558,131.909927 107.351974,131.841522 
	C108.816833,131.261765 109.940269,130.696609 111.390938,130.084930 
	C112.151970,129.977524 112.585762,129.916656 113.289566,129.891968 
	C113.757301,129.633713 113.955032,129.339264 114.374817,129.031845 
	C114.596886,129.018875 115.010643,128.855392 115.369263,128.825974 
	C125.213112,124.071808 134.763229,119.416542 138.000000,108.000000 
z"/>
<path fill="#50BA69" opacity="1.000000" stroke="none" 
	d="
M82.625000,0.999999 
	C84.239876,1.650743 85.536453,2.213331 86.709572,2.967862 
	C91.205643,5.859669 91.058319,9.836132 86.462059,12.273960 
	C85.173241,12.957542 83.817360,13.706975 82.841454,14.752245 
	C79.881592,17.922512 76.815018,18.038221 74.059593,14.882339 
	C71.146225,11.545566 71.653023,6.761745 75.007645,4.078875 
	C76.357048,2.999684 78.135063,2.456406 79.859001,1.334610 
	C80.750000,1.000000 81.500000,1.000000 82.625000,0.999999 
z"/>
<path fill="#020202" opacity="1.000000" stroke="none" 
	d="
M138.000000,107.583336 
	C134.763229,119.416542 125.213112,124.071808 115.410706,128.512177 
	C116.064552,127.152443 117.035583,126.077080 118.003769,124.997864 
	C118.000916,124.994003 118.006844,124.982788 118.361008,124.952972 
	C122.555084,122.364372 126.710136,120.167137 130.159637,117.160446 
	C135.100159,112.854141 136.967392,103.601311 133.869873,98.953270 
	C128.640457,91.106155 121.320381,85.980064 111.986664,83.588219 
	C111.999550,82.445694 112.007614,81.684013 112.015678,80.922325 
	C121.233719,83.841057 129.575287,88.113152 134.954514,96.574089 
	C136.111115,98.393311 136.515121,100.691017 137.632904,102.884155 
	C138.000000,104.388893 138.000000,105.777779 138.000000,107.583336 
z"/>
<path fill="#020202" opacity="1.000000" stroke="none" 
	d="
M78.566315,135.849060 
	C77.690956,135.924789 76.815598,136.000534 75.470123,136.538147 
	C71.637901,137.000000 68.275795,137.000000 64.456848,137.000000 
	C63.200874,136.665131 62.401749,136.330261 61.724884,135.728912 
	C67.420197,135.591324 72.993256,135.720184 78.566315,135.849060 
z"/>
<path fill="#363D3F" opacity="1.000000" stroke="none" 
	d="
M112.008644,80.494507 
	C112.007614,81.684013 111.999550,82.445694 111.973244,83.575714 
	C111.955002,83.944038 111.920647,83.961281 111.713547,84.072952 
	C111.250984,84.399216 111.110222,84.672836 111.062408,85.420441 
	C111.059029,87.219872 111.077385,88.604332 111.062637,90.326485 
	C111.340523,91.446091 111.651527,92.228004 111.974808,93.408234 
	C112.017044,94.868469 112.047005,95.930397 112.039642,97.407959 
	C111.990631,99.211899 111.978943,100.600197 111.753357,102.088974 
	C111.266602,102.371132 111.076889,102.616974 110.599121,102.944244 
	C109.485489,102.994499 108.743050,103.027489 107.703415,103.060867 
	C106.934547,103.365532 106.462868,103.669800 105.591751,103.982452 
	C104.126907,104.009209 103.061501,104.027580 101.678299,104.010895 
	C100.570938,103.669365 99.781387,103.362877 98.622299,103.032509 
	C97.513527,102.980118 96.774277,102.951614 95.826225,102.663559 
	C93.085495,99.921684 90.553566,97.439369 88.056183,94.581161 
	C88.045090,91.800079 87.999428,89.394897 87.970673,86.580856 
	C88.965256,82.259026 86.100136,80.263596 83.941650,77.571091 
	C89.169327,73.200798 84.376129,68.066048 86.137924,63.680470 
	C85.599472,63.610622 85.061028,63.540779 84.522575,63.470932 
	C83.953888,67.998886 83.385201,72.526840 82.449463,77.148621 
	C82.041466,80.168518 82.000519,83.094589 81.822250,86.362526 
	C82.139008,89.137947 82.593079,91.571487 82.916077,94.278671 
	C82.215561,95.372620 81.646111,96.192924 81.051773,97.345619 
	C81.045647,98.122009 81.064423,98.566010 81.162079,99.281273 
	C81.524757,100.040237 81.808556,100.527931 82.038658,101.331650 
	C81.671768,102.437012 81.358582,103.226341 80.820450,104.103302 
	C80.297012,104.350838 80.091080,104.590332 79.606346,104.934807 
	C77.812576,105.355537 76.390175,105.750893 74.565369,106.101318 
	C71.467270,105.347992 68.771568,104.639580 65.890762,103.687164 
	C64.813141,102.942719 63.920616,102.442276 62.931183,101.722488 
	C62.643173,101.229851 62.387886,101.045364 61.933472,100.675156 
	C61.213875,99.591949 60.629234,98.783257 59.951546,97.754272 
	C59.683331,97.254097 59.442337,97.053177 59.053776,96.585297 
	C53.660648,91.775429 53.202148,91.998306 49.554470,97.436134 
	C48.423649,99.121925 45.897751,99.871895 43.593658,101.026840 
	C41.788040,101.026817 40.399319,101.050247 38.634678,101.046890 
	C37.505520,101.014046 36.752277,101.007980 35.682007,100.987411 
	C34.943317,100.955772 34.521648,100.938660 33.919067,100.687622 
	C33.181995,100.286575 32.625835,100.119446 31.922039,99.680275 
	C30.861532,98.586533 29.948666,97.764839 29.009024,96.648682 
	C28.666008,95.885780 28.349768,95.417320 28.008015,94.657745 
	C27.668640,93.906021 27.354778,93.445404 27.027451,92.646179 
	C26.689688,91.522713 26.365391,90.737854 26.018684,89.712440 
	C25.996273,89.471886 25.919714,88.994781 25.940285,88.661682 
	C25.944239,87.884193 25.927626,87.439812 25.940910,86.658813 
	C25.644293,85.550636 25.317780,84.779068 24.992722,83.659798 
	C24.990854,82.848488 24.987532,82.384895 24.984207,81.921295 
	C23.752096,72.880814 21.769499,63.924927 23.873846,54.678223 
	C24.846569,50.403992 24.695108,45.884594 25.245054,41.500404 
	C25.773960,37.283924 28.665524,35.905678 32.263557,37.214451 
	C37.703350,39.193157 42.416439,42.168224 44.071899,48.454319 
	C44.845661,51.392441 46.425949,54.118156 48.367485,56.855888 
	C47.545658,40.383976 59.674721,33.470169 70.993668,25.376930 
	C70.143486,32.170422 68.686440,39.756592 74.415184,44.547775 
	C79.625702,48.905548 85.917282,52.554070 92.336166,54.750629 
	C102.659508,58.283318 109.205002,51.365349 116.217598,44.231209 
	C114.812271,56.176373 113.406944,68.121536 112.008644,80.494507 
M48.058273,87.654831 
	C48.067783,88.098045 48.077293,88.541252 48.102623,89.669411 
	C48.588650,93.466476 51.252766,92.312302 53.309521,91.722771 
	C54.945091,91.253960 57.222416,90.484993 54.963356,87.407547 
	C54.666367,86.928314 54.369381,86.449089 54.019802,85.231895 
	C51.855305,82.220863 50.162022,82.724136 48.058273,87.654831 
z"/>
<path fill="#020202" opacity="1.000000" stroke="none" 
	d="
M24.609417,81.958313 
	C24.987532,82.384895 24.990854,82.848488 24.675024,83.801407 
	C20.727997,86.293404 16.895994,88.002472 13.511651,90.355423 
	C4.433780,96.666763 1.290432,106.405289 6.327782,113.358940 
	C10.242017,118.762238 15.233118,123.196205 21.997734,124.999634 
	C21.999695,125.000366 22.002176,125.004272 22.108381,125.220711 
	C22.412546,125.708725 22.674570,125.885178 23.376402,125.986115 
	C31.833393,128.338882 39.914639,130.672043 48.145023,133.451309 
	C48.438034,134.176056 48.581902,134.454681 48.725769,134.733322 
	C32.587337,132.845444 17.300852,128.963211 5.793086,116.300858 
	C-1.472660,108.306137 1.602460,96.155632 9.651600,90.186333 
	C14.094126,86.891701 19.347038,84.689819 24.609417,81.958313 
z"/>
<path fill="#50BA69" opacity="1.000000" stroke="none" 
	d="
M113.773468,6.285113 
	C114.629143,7.879468 115.754532,9.227108 115.674294,10.498666 
	C115.576523,12.047896 114.773323,13.858338 113.663704,14.911398 
	C113.093040,15.452979 111.068550,14.861750 109.919632,14.319361 
	C106.602562,12.753408 103.396469,10.952375 100.148872,9.244745 
	C103.391266,1.573029 107.835495,0.501763 113.773468,6.285113 
z"/>
<path fill="#50BA69" opacity="1.000000" stroke="none" 
	d="
M85.056664,35.873631 
	C86.419876,31.239012 88.232643,27.268517 93.715294,28.140450 
	C94.946686,28.336285 97.042633,30.718567 96.809685,31.253557 
	C95.375183,34.548115 94.087921,38.603493 91.404800,40.480320 
	C88.093681,42.796432 86.516556,38.812977 85.056664,35.873631 
z"/>
<path fill="#50BA69" opacity="1.000000" stroke="none" 
	d="
M113.992958,33.125305 
	C113.519112,36.075184 112.980225,40.082645 109.853386,38.531410 
	C107.188805,37.209507 105.346367,33.233688 104.286575,30.050297 
	C103.658257,28.162933 108.829872,26.931122 111.188255,28.847246 
	C112.383591,29.818428 113.071693,31.413910 113.992958,33.125305 
z"/>
<path fill="#50BA69" opacity="1.000000" stroke="none" 
	d="
M101.455872,46.221069 
	C100.220154,44.741734 99.315567,43.446964 97.816948,41.301914 
	C101.264885,41.301914 103.336426,41.301914 106.352264,41.301914 
	C105.776756,43.247261 105.413773,45.030575 104.642143,46.614845 
	C104.487114,46.933144 102.779022,46.495003 101.455872,46.221069 
z"/>
<path fill="#101211" opacity="1.000000" stroke="none" 
	d="
M78.805008,135.937500 
	C72.993256,135.720184 67.420197,135.591324 61.040344,135.652161 
	C59.378036,135.898621 58.522526,135.955353 57.371498,135.473022 
	C57.046844,134.626511 57.017700,134.319046 56.993729,134.006409 
	C56.998901,134.001236 57.003716,133.993958 57.472046,133.993805 
	C61.092068,133.995712 64.253265,133.842804 67.393295,134.035187 
	C72.460823,134.345688 77.514420,134.883575 82.573898,135.325424 
	C81.397163,135.558929 80.220436,135.792450 78.805008,135.937500 
z"/>
<path fill="#020202" opacity="1.000000" stroke="none" 
	d="
M56.988560,134.011597 
	C57.017700,134.319046 57.046844,134.626511 57.113914,135.395660 
	C54.633175,135.561844 52.114498,135.266327 49.779083,134.620117 
	C52.304417,134.183487 54.646488,134.097534 56.988560,134.011597 
z"/>
<path fill="#101211" opacity="1.000000" stroke="none" 
	d="
M56.993729,134.006409 
	C54.646488,134.097534 52.304417,134.183487 49.370720,134.407379 
	C48.779091,134.545334 48.748287,134.641617 48.737030,134.687469 
	C48.581902,134.454681 48.438034,134.176056 48.584843,133.446457 
	C51.584919,133.328308 54.294319,133.661133 57.003716,133.993958 
	C57.003716,133.993958 56.998901,134.001236 56.993729,134.006409 
z"/>
<path fill="#002707" opacity="1.000000" stroke="none" 
	d="
M57.472046,133.993805 
	C54.294319,133.661133 51.584919,133.328308 48.435703,133.000351 
	C39.914639,130.672043 31.833393,128.338882 23.266598,125.773499 
	C22.580830,125.276131 22.321207,125.097130 22.002176,125.004272 
	C22.002176,125.004272 21.999695,125.000366 21.962267,124.651245 
	C20.210587,122.832298 18.536373,121.312515 16.775314,119.901093 
	C7.954243,112.831367 5.182081,104.956589 11.994359,96.948349 
	C15.579241,92.734108 21.206160,90.256950 25.911011,86.995430 
	C25.927626,87.439812 25.944239,87.884193 25.598669,88.703354 
	C22.862946,90.559021 20.359451,91.868576 18.139765,93.552292 
	C10.929644,99.021454 9.727441,110.126938 16.220491,116.026054 
	C24.038294,123.128723 33.098248,126.704201 43.339912,128.991791 
	C44.114349,128.994614 44.556919,128.995270 45.248436,129.275726 
	C47.999489,130.035309 50.501598,130.515091 53.403328,130.996094 
	C54.868317,130.996796 55.933685,130.996246 57.243511,131.272095 
	C59.325043,131.367188 61.162109,131.185898 63.420311,131.005432 
	C68.227943,131.005997 72.614441,131.005753 77.248520,131.281143 
	C79.664261,131.370956 81.832436,131.185104 84.375381,130.999344 
	C85.499626,130.998978 86.249115,130.998505 87.386230,130.998108 
	C89.515816,130.665192 91.257751,130.332214 93.393967,129.998718 
	C95.861244,129.002365 97.934258,128.006516 100.406189,127.008636 
	C101.868713,127.002769 102.932312,126.998947 104.369965,126.956009 
	C110.163086,124.611565 115.582153,122.306236 120.965485,120.342255 
	C119.955452,122.116653 118.981148,123.549721 118.006844,124.982788 
	C118.006844,124.982788 118.000916,124.994003 117.623764,125.038773 
	C111.829582,127.054268 106.412560,129.024994 100.575073,130.997894 
	C96.122017,131.664429 92.056763,132.180695 88.071571,133.059906 
	C86.262596,133.458969 84.612312,134.577332 82.890045,135.369400 
	C82.890045,135.369400 82.645645,135.294266 82.609772,135.309845 
	C77.514420,134.883575 72.460823,134.345688 67.393295,134.035187 
	C64.253265,133.842804 61.092068,133.995712 57.472046,133.993805 
z"/>
<path fill="#101211" opacity="1.000000" stroke="none" 
	d="
M100.995537,130.995728 
	C106.412560,129.024994 111.829582,127.054268 117.626617,125.042625 
	C117.035583,126.077080 116.064552,127.152443 115.052078,128.541595 
	C115.010643,128.855392 114.596886,129.018875 114.145416,129.107147 
	C113.376472,129.320877 113.151680,129.541000 113.019562,129.855789 
	C112.585762,129.916656 112.151970,129.977524 111.216988,129.822510 
	C109.480713,130.356461 108.245628,131.106293 107.010536,131.856125 
	C106.554558,131.909927 106.098572,131.963745 105.060989,131.688446 
	C103.322113,131.243637 102.164833,131.127945 101.004784,131.007675 
	C101.002007,131.003098 100.995537,130.995728 100.995537,130.995728 
z"/>
<path fill="#101211" opacity="1.000000" stroke="none" 
	d="
M82.955765,135.388519 
	C84.612312,134.577332 86.262596,133.458969 88.071571,133.059906 
	C92.056763,132.180695 96.122017,131.664429 100.575073,130.997894 
	C100.995537,130.995728 101.002007,131.003098 100.755859,131.287354 
	C99.623245,132.333099 98.736786,133.094589 97.850334,133.856094 
	C97.339172,133.876282 96.828018,133.896454 95.616455,133.604324 
	C93.891464,133.813370 92.866882,134.334732 91.842308,134.856094 
	C91.006340,134.887863 90.170380,134.919632 88.483856,134.582489 
	C86.138023,134.593704 84.642731,134.973862 83.147446,135.354004 
	C83.147446,135.354004 83.021492,135.407654 82.955765,135.388519 
z"/>
<path fill="#020202" opacity="1.000000" stroke="none" 
	d="
M98.188339,133.923111 
	C98.736786,133.094589 99.623245,132.333099 100.758636,131.291931 
	C102.164833,131.127945 103.322113,131.243637 104.723755,131.607788 
	C102.820862,132.567535 100.673599,133.278824 98.188339,133.923111 
z"/>
<path fill="#020202" opacity="1.000000" stroke="none" 
	d="
M83.323456,135.610260 
	C84.642731,134.973862 86.138023,134.593704 88.203552,134.430557 
	C87.015686,135.053879 85.257576,135.460190 83.323456,135.610260 
z"/>
<path fill="#020202" opacity="1.000000" stroke="none" 
	d="
M107.351974,131.841522 
	C108.245628,131.106293 109.480713,130.356461 110.889755,129.869049 
	C109.940269,130.696609 108.816833,131.261765 107.351974,131.841522 
z"/>
<path fill="#020202" opacity="1.000000" stroke="none" 
	d="
M92.159378,134.923370 
	C92.866882,134.334732 93.891464,133.813370 95.371376,133.520615 
	C94.709953,134.163025 93.593201,134.576828 92.159378,134.923370 
z"/>
<path fill="#020202" opacity="1.000000" stroke="none" 
	d="
M113.289566,129.891968 
	C113.151680,129.541000 113.376472,129.320877 113.923355,129.120117 
	C113.955032,129.339264 113.757301,129.633713 113.289566,129.891968 
z"/>
<path fill="#021F04" opacity="1.000000" stroke="none" 
	d="
M118.361008,124.952972 
	C118.981148,123.549721 119.955452,122.116653 121.214172,120.340912 
	C121.498581,119.998238 121.995979,119.996376 122.343063,119.963577 
	C128.465240,116.430191 132.295746,111.082436 131.438553,104.591843 
	C130.531158,97.721046 126.215271,92.250221 118.749115,90.000488 
	C118.500336,89.999367 118.002777,89.996986 117.960579,89.676239 
	C117.277283,88.905266 116.636192,88.455040 115.648438,87.970184 
	C114.196144,86.954338 113.090515,85.973114 111.977448,84.733704 
	C111.953545,84.304092 111.937096,84.132683 111.920647,83.961281 
	C111.920647,83.961281 111.955002,83.944038 111.968430,83.956543 
	C121.320381,85.980064 128.640457,91.106155 133.869873,98.953270 
	C136.967392,103.601311 135.100159,112.854141 130.159637,117.160446 
	C126.710136,120.167137 122.555084,122.364372 118.361008,124.952972 
z"/>
<path fill="#011D04" opacity="1.000000" stroke="none" 
	d="
M25.940908,86.658813 
	C21.206160,90.256950 15.579241,92.734108 11.994359,96.948349 
	C5.182081,104.956589 7.954243,112.831367 16.775314,119.901093 
	C18.536373,121.312515 20.210587,122.832298 21.960306,124.650513 
	C15.233118,123.196205 10.242017,118.762238 6.327782,113.358940 
	C1.290432,106.405289 4.433780,96.666763 13.511651,90.355423 
	C16.895994,88.002472 20.727997,86.293404 24.673569,84.149124 
	C25.317780,84.779068 25.644293,85.550636 25.940908,86.658813 
z"/>
<path fill="#054821" opacity="1.000000" stroke="none" 
	d="
M28.033525,94.948868 
	C28.349768,95.417320 28.666008,95.885780 28.960249,97.023132 
	C28.132397,99.471786 27.220629,101.212143 26.541073,103.038895 
	C24.692875,108.007042 27.902794,113.882149 32.998981,115.001312 
	C33.000000,115.000000 32.997360,115.002747 33.036339,115.356140 
	C38.052193,118.136391 43.029060,120.563248 48.338173,122.991638 
	C49.113396,122.994057 49.556377,122.994934 50.143658,123.222733 
	C50.858425,123.302376 51.428898,123.155098 52.373940,123.007607 
	C53.497616,123.012474 54.246727,123.017555 55.027420,123.313095 
	C55.705769,123.737938 56.352535,123.872314 57.399166,124.005127 
	C58.865910,124.002594 59.932785,124.001633 61.167366,124.245117 
	C61.890415,124.657043 62.445759,124.824516 62.999519,125.247833 
	C62.997475,125.674263 62.997002,125.844841 62.750465,126.288307 
	C60.670036,127.038712 58.835678,127.516220 56.626945,127.995468 
	C55.503834,127.994736 54.755096,127.992256 53.935226,127.626274 
	C51.241203,126.510674 48.618313,125.758583 45.620964,125.005493 
	C44.497581,125.003525 43.748657,125.002548 42.939877,124.646851 
	C39.954330,122.877731 37.009357,121.501701 34.106262,120.042366 
	C20.647039,113.276649 18.995647,106.421875 28.033525,94.948868 
z"/>
<path fill="#00300E" opacity="1.000000" stroke="none" 
	d="
M43.008045,128.989624 
	C33.098248,126.704201 24.038294,123.128723 16.220491,116.026054 
	C9.727441,110.126938 10.929644,99.021454 18.139765,93.552292 
	C20.359451,91.868576 22.862946,90.559021 25.578098,89.036453 
	C25.919714,88.994781 25.996273,89.471886 25.862118,90.017876 
	C23.978580,92.049614 22.119577,93.425636 20.501167,95.042488 
	C16.292370,99.247215 14.543715,106.661629 17.025751,110.906403 
	C19.848181,115.733330 22.907898,120.451149 28.704885,122.367104 
	C32.298225,123.554733 35.871223,124.834595 39.356625,126.302689 
	C40.710770,126.873077 41.798798,128.075241 43.008045,128.989624 
z"/>
<path fill="#054821" opacity="1.000000" stroke="none" 
	d="
M111.967255,101.988495 
	C111.978943,100.600197 111.990631,99.211899 112.405495,97.416046 
	C118.420456,99.516815 120.515404,105.922836 117.100769,111.269142 
	C112.455574,118.542152 104.918648,121.509712 97.123550,124.048012 
	C95.288651,124.645515 93.696800,125.989433 91.661087,126.992264 
	C90.886131,126.994141 90.443214,126.993713 89.738701,126.710220 
	C87.928734,126.472054 86.376389,126.607994 84.832947,126.540421 
	C82.553024,126.440590 80.279434,126.196053 78.110123,125.790779 
	C78.416222,125.290741 78.678406,125.099541 79.408142,124.995628 
	C81.539803,124.657967 83.266975,124.319489 85.243675,123.982880 
	C85.493202,123.984749 85.991989,123.974495 86.326492,123.985687 
	C87.106850,123.997192 87.552689,123.997498 88.374557,123.997612 
	C89.835419,123.333244 90.920258,122.669067 92.392120,122.003586 
	C94.518089,121.666084 96.257042,121.329895 98.372330,120.990952 
	C103.484100,117.824699 108.648262,115.134544 112.823647,111.352707 
	C116.368454,108.141998 115.547272,104.540375 111.967255,101.988495 
z"/>
<path fill="#012F0E" opacity="1.000000" stroke="none" 
	d="
M118.002777,89.996986 
	C118.002777,89.996986 118.500336,89.999367 118.797546,90.336311 
	C120.712959,92.265099 122.345482,93.842697 123.946808,95.451347 
	C129.739197,101.270271 130.423294,105.861359 126.415321,113.093643 
	C125.093689,115.478500 123.477493,117.700119 121.995987,119.996376 
	C121.995979,119.996376 121.498581,119.998238 121.249901,119.999573 
	C115.582153,122.306236 110.163086,124.611565 104.430634,126.603340 
	C105.048981,125.706436 105.991661,125.139763 106.910637,124.536942 
	C111.830017,121.310005 117.347610,118.682121 121.437691,114.618492 
	C123.986526,112.086143 126.220482,106.866333 125.354836,103.754021 
	C123.467087,96.966850 118.409966,91.932816 111.095749,89.988800 
	C111.077385,88.604332 111.059029,87.219872 111.287201,85.417068 
	C111.533737,84.998726 111.984894,84.991890 111.984894,84.991890 
	C113.090515,85.973114 114.196144,86.954338 115.691345,88.290520 
	C116.721535,89.095985 117.362152,89.546486 118.002777,89.996986 
z"/>
<path fill="#04401A" opacity="1.000000" stroke="none" 
	d="
M91.993134,126.989975 
	C93.696800,125.989433 95.288651,124.645515 97.123550,124.048012 
	C104.918648,121.509712 112.455574,118.542152 117.100769,111.269142 
	C120.515404,105.922836 118.420456,99.516815 112.442810,97.000404 
	C112.047005,95.930397 112.017044,94.868469 112.332901,93.437599 
	C123.269302,97.801231 125.504356,109.132530 116.792763,116.444855 
	C112.854408,119.750626 107.667709,121.555992 103.095253,124.127235 
	C101.648544,124.940758 100.357033,126.030281 98.662109,126.994965 
	C97.886482,126.997009 97.443245,126.997597 96.828873,126.769623 
	C96.103218,127.024979 95.548691,127.508881 94.661728,127.993713 
	C93.886055,127.995140 93.442802,127.995651 92.890594,127.776016 
	C92.579414,127.282799 92.316582,127.094170 91.993134,126.989975 
z"/>
<path fill="#023915" opacity="1.000000" stroke="none" 
	d="
M43.339912,128.991791 
	C41.798798,128.075241 40.710770,126.873077 39.356625,126.302689 
	C35.871223,124.834595 32.298225,123.554733 28.704885,122.367104 
	C22.907898,120.451149 19.848181,115.733330 17.025751,110.906403 
	C14.543715,106.661629 16.292370,99.247215 20.501167,95.042488 
	C22.119577,93.425636 23.978580,92.049614 25.884529,90.258430 
	C26.365391,90.737854 26.689688,91.522713 26.720366,92.791916 
	C24.992613,94.653137 23.432697,95.922684 22.148632,97.427605 
	C18.706411,101.461884 17.714460,107.433861 20.227659,111.286804 
	C25.566319,119.471428 33.609356,123.415123 42.999737,125.001579 
	C43.748657,125.002548 44.497581,125.003525 45.622108,125.338531 
	C45.998676,126.116875 45.999641,126.561180 45.893692,127.263519 
	C45.524342,128.013000 45.261917,128.504456 44.999493,128.995911 
	C44.556919,128.995270 44.114349,128.994614 43.339912,128.991791 
z"/>
<path fill="#023714" opacity="1.000000" stroke="none" 
	d="
M98.994492,126.993492 
	C100.357033,126.030281 101.648544,124.940758 103.095253,124.127235 
	C107.667709,121.555992 112.854408,119.750626 116.792763,116.444855 
	C125.504356,109.132530 123.269302,97.801231 112.320618,93.039284 
	C111.651527,92.228004 111.340523,91.446091 111.062630,90.326485 
	C118.409966,91.932816 123.467087,96.966850 125.354836,103.754021 
	C126.220482,106.866333 123.986526,112.086143 121.437691,114.618492 
	C117.347610,118.682121 111.830017,121.310005 106.910637,124.536942 
	C105.991661,125.139763 105.048981,125.706436 104.056580,126.642456 
	C102.932312,126.998947 101.868713,127.002769 100.152969,127.003914 
	C99.332047,126.998650 99.163269,126.996071 98.994492,126.993492 
z"/>
<path fill="#20713D" opacity="1.000000" stroke="none" 
	d="
M39.010593,101.073685 
	C40.399319,101.050247 41.788040,101.026817 43.589581,101.410187 
	C42.841492,110.579712 49.074879,116.906494 57.366493,115.012314 
	C59.835251,115.982330 61.941586,116.953491 64.415329,117.943207 
	C65.521317,117.973495 66.259895,117.985222 66.826721,118.259995 
	C66.102997,119.344872 65.551025,120.166695 64.599533,120.989838 
	C63.134907,120.988708 62.069794,120.986244 60.824692,120.657860 
	C57.104385,119.183556 53.528961,118.132309 50.030521,116.868050 
	C40.662010,113.482475 38.351559,110.109955 39.010593,101.073685 
z"/>
<path fill="#04411B" opacity="1.000000" stroke="none" 
	d="
M42.939877,124.646851 
	C33.609356,123.415123 25.566319,119.471428 20.227659,111.286804 
	C17.714460,107.433861 18.706411,101.461884 22.148632,97.427605 
	C23.432697,95.922684 24.992613,94.653137 26.733833,93.130524 
	C27.354778,93.445404 27.668640,93.906021 28.008015,94.657745 
	C18.995647,106.421875 20.647039,113.276649 34.106262,120.042366 
	C37.009357,121.501701 39.954330,122.877731 42.939877,124.646851 
z"/>
<path fill="#287C45" opacity="1.000000" stroke="none" 
	d="
M57.004066,115.013458 
	C49.074879,116.906494 42.841492,110.579712 44.006477,101.433647 
	C45.897751,99.871895 48.423649,99.121925 49.554470,97.436134 
	C53.202148,91.998306 53.660648,91.775429 58.664303,96.613022 
	C57.105152,97.386673 55.541252,97.445297 54.661076,98.250916 
	C52.057247,100.634193 48.174290,103.101936 47.788010,105.943909 
	C47.493877,108.107971 51.707096,110.957466 54.054855,113.365669 
	C54.808453,114.138641 56.008358,114.476517 57.004066,115.013458 
z"/>
<path fill="#409F59" opacity="1.000000" stroke="none" 
	d="
M79.977707,104.909424 
	C80.091080,104.590332 80.297012,104.350838 81.155243,104.136093 
	C85.260506,105.483398 83.504753,107.167183 81.835884,108.595245 
	C79.990349,110.174469 77.951958,111.528297 75.537239,112.985580 
	C71.385674,112.986252 67.694427,112.981621 63.945171,112.630356 
	C63.437725,111.868774 62.995808,111.445312 62.537533,111.040367 
	C60.712769,109.427925 58.882908,107.821259 57.054935,106.212463 
	C58.726101,104.458206 60.397266,102.703941 62.068428,100.949677 
	C62.387886,101.045364 62.643173,101.229851 62.782722,102.032120 
	C62.174980,104.356140 61.618793,106.151169 61.062607,107.946198 
	C63.041656,108.298576 65.020699,108.650955 67.377945,109.044708 
	C69.497375,109.383034 71.238609,109.679993 73.352905,109.980637 
	C75.809891,108.292694 77.893799,106.601059 79.977707,104.909424 
z"/>
<path fill="#186535" opacity="1.000000" stroke="none" 
	d="
M38.634678,101.046890 
	C38.351559,110.109955 40.662010,113.482475 50.030521,116.868050 
	C53.528961,118.132309 57.104385,119.183556 60.822609,120.665024 
	C61.000515,120.998100 60.999580,121.005035 60.598919,121.003639 
	C59.129169,121.007462 58.060085,121.012672 56.740215,121.014221 
	C56.322159,121.011147 56.154884,121.011749 55.760185,120.737137 
	C54.355175,120.308456 53.177589,120.154991 51.774246,119.727577 
	C48.354485,118.091713 44.960102,117.065247 42.006413,115.300980 
	C34.943966,111.082474 34.014992,108.504028 35.999035,101.001923 
	C36.752277,101.007980 37.505520,101.014046 38.634678,101.046890 
z"/>
<path fill="#2E854A" opacity="1.000000" stroke="none" 
	d="
M57.366493,115.012314 
	C56.008358,114.476517 54.808453,114.138641 54.054855,113.365669 
	C51.707096,110.957466 47.493877,108.107971 47.788010,105.943909 
	C48.174290,103.101936 52.057247,100.634193 54.661076,98.250916 
	C55.541252,97.445297 57.105152,97.386673 58.746056,96.958939 
	C59.442337,97.053177 59.683331,97.254097 59.687527,97.866951 
	C59.013344,98.469147 58.510139,98.738373 57.651726,99.039360 
	C54.911194,101.317276 52.525871,103.563431 50.140549,105.809586 
	C52.427795,107.872337 54.715042,109.935089 57.376019,111.998840 
	C58.497200,112.003983 59.244652,112.008133 60.036224,112.332123 
	C60.722992,113.098213 61.365635,113.544472 62.339622,113.991562 
	C63.112759,113.993156 63.554554,113.993919 64.250473,114.185501 
	C64.352371,115.559097 64.200142,116.741875 64.047913,117.924644 
	C61.941586,116.953491 59.835251,115.982330 57.366493,115.012314 
z"/>
<path fill="#10582D" opacity="1.000000" stroke="none" 
	d="
M97.995987,120.993698 
	C96.257042,121.329895 94.518089,121.666084 92.057312,122.001236 
	C90.889206,121.998505 90.442924,121.996811 89.997650,121.621704 
	C90.000587,120.501434 90.002518,119.754570 90.403397,119.005745 
	C91.866241,119.000717 92.930122,118.997658 94.315399,118.955544 
	C95.091972,118.278976 95.547142,117.641464 96.334549,117.002441 
	C97.109764,116.999397 97.552742,116.997864 98.349190,116.963531 
	C104.620544,114.196747 109.012543,110.439888 108.000610,103.060486 
	C108.743050,103.027489 109.485489,102.994499 110.609428,103.378792 
	C111.607895,108.737236 109.768623,112.379425 105.532738,115.082748 
	C102.854050,116.792274 100.497192,119.006073 97.995987,120.993698 
z"/>
<path fill="#10582D" opacity="1.000000" stroke="none" 
	d="
M49.999363,122.995819 
	C49.556377,122.994934 49.113396,122.994057 48.275883,122.638321 
	C42.920025,119.856552 37.958694,117.429649 32.997360,115.002747 
	C32.997360,115.002747 33.000000,115.000000 32.858986,114.678947 
	C31.940050,113.132668 31.094240,111.944733 30.396799,110.675293 
	C28.207642,106.690704 28.149258,103.001373 32.069675,99.952316 
	C32.625835,100.119446 33.181995,100.286575 33.612186,100.918694 
	C30.858543,106.910454 31.756226,110.867798 37.315971,114.488197 
	C41.278500,117.068527 45.754017,118.861084 50.000610,121.336914 
	C50.000202,122.111031 49.999783,122.553429 49.999363,122.995819 
z"/>
<path fill="#0B5228" opacity="1.000000" stroke="none" 
	d="
M98.372330,120.990952 
	C100.497192,119.006073 102.854050,116.792274 105.532738,115.082748 
	C109.768623,112.379425 111.607895,108.737236 110.980621,103.361526 
	C111.076889,102.616974 111.266602,102.371132 111.753357,102.088974 
	C115.547272,104.540375 116.368454,108.141998 112.823647,111.352707 
	C108.648262,115.134544 103.484100,117.824699 98.372330,120.990952 
z"/>
<path fill="#287C45" opacity="1.000000" stroke="none" 
	d="
M88.021629,94.957047 
	C90.553566,97.439369 93.085495,99.921684 95.813324,103.060837 
	C95.812187,107.157707 94.969475,110.153778 91.042084,110.635056 
	C92.960472,107.468811 94.188644,104.242775 91.064377,101.942528 
	C88.120941,99.775414 84.435616,98.615967 81.076660,97.013222 
	C81.646111,96.192924 82.215561,95.372620 83.281242,94.278366 
	C85.192192,94.321968 86.606911,94.639503 88.021629,94.957047 
z"/>
<path fill="#1F6F3B" opacity="1.000000" stroke="none" 
	d="
M98.991829,103.056389 
	C99.781387,103.362877 100.570938,103.669365 101.679779,104.404785 
	C101.724663,111.901794 96.210167,114.190750 91.083763,116.880043 
	C89.326958,117.801651 87.690041,118.951790 85.999176,119.998764 
	C86.000000,120.000000 85.999695,119.999695 85.666451,119.997635 
	C84.888863,119.996353 84.444527,119.997139 84.000328,119.747192 
	C84.000092,119.329247 83.999710,119.162010 83.998810,118.620621 
	C83.999603,117.498291 84.000923,116.750107 84.374908,115.997040 
	C86.831169,115.327293 88.914764,114.662422 91.352058,113.961914 
	C96.500801,111.889145 99.088730,108.372589 98.991829,103.056389 
z"/>
<path fill="#186535" opacity="1.000000" stroke="none" 
	d="
M85.998352,119.997528 
	C87.690041,118.951790 89.326958,117.801651 91.083763,116.880043 
	C96.210167,114.190750 101.724663,111.901794 101.997574,104.439827 
	C103.061501,104.027580 104.126907,104.009209 105.588966,104.366394 
	C105.869148,105.382050 105.947144,106.161011 105.605095,106.640060 
	C103.116096,110.126030 100.542542,113.551643 97.995720,116.996330 
	C97.552742,116.997864 97.109764,116.999397 96.013580,117.042099 
	C94.904915,117.720383 94.449463,118.357491 93.994011,118.994598 
	C92.930122,118.997658 91.866241,119.000717 90.104698,119.023727 
	C88.937950,119.363167 88.468857,119.682648 87.666077,120.001282 
	C86.887718,119.999458 86.443031,119.998497 85.998352,119.997528 
z"/>
<path fill="#135E30" opacity="1.000000" stroke="none" 
	d="
M50.000610,121.005188 
	C45.754017,118.861084 41.278500,117.068527 37.315971,114.488197 
	C31.756226,110.867798 30.858543,106.910454 33.793098,101.152611 
	C34.521648,100.938660 34.943317,100.955772 35.682007,100.987411 
	C34.014992,108.504028 34.943966,111.082474 42.006413,115.300980 
	C44.960102,117.065247 48.354485,118.091713 51.774139,119.979630 
	C51.999298,120.673676 51.998810,120.841721 51.665379,121.007416 
	C50.888493,121.005112 50.444553,121.005150 50.000610,121.005188 
z"/>
<path fill="#399554" opacity="1.000000" stroke="none" 
	d="
M59.992104,112.012291 
	C59.244652,112.008133 58.497200,112.003983 57.323200,111.656448 
	C51.857048,105.962212 51.874451,105.804489 57.231060,100.723137 
	C57.652718,100.323158 57.755798,99.587334 58.006935,99.007599 
	C58.510139,98.738373 59.013344,98.469147 59.780571,98.087250 
	C60.629234,98.783257 61.213875,99.591949 61.933472,100.675156 
	C60.397266,102.703941 58.726101,104.458206 57.054935,106.212463 
	C58.882908,107.821259 60.712769,109.427925 62.537533,111.040367 
	C62.995808,111.445312 63.437725,111.868774 63.943092,112.884918 
	C63.998135,113.655624 63.997242,113.825150 63.996346,113.994675 
	C63.554554,113.993919 63.112759,113.993156 62.295383,113.671646 
	C61.277233,112.904686 60.634670,112.458488 59.992104,112.012291 
z"/>
<path fill="#10582D" opacity="1.000000" stroke="none" 
	d="
M88.056183,94.581161 
	C86.606911,94.639503 85.192192,94.321968 83.412308,94.004730 
	C82.593079,91.571487 82.139008,89.137947 82.205353,86.393661 
	C84.468445,86.385185 86.211105,86.687447 87.953766,86.989708 
	C87.999428,89.394897 88.045090,91.800079 88.056183,94.581161 
z"/>
<path fill="#338C4E" opacity="1.000000" stroke="none" 
	d="
M82.092361,101.015625 
	C81.808556,100.527931 81.524757,100.040237 81.529449,99.283371 
	C90.307983,101.544365 91.415001,104.398117 86.568558,111.128296 
	C86.208557,111.628212 86.178139,112.365463 85.629715,112.994843 
	C83.176331,113.662155 81.087746,114.327003 78.999580,114.739075 
	C78.998894,114.317726 78.997772,114.149147 79.054092,113.635216 
	C80.336510,112.554947 81.757645,112.017426 82.741409,111.039803 
	C84.298378,109.492523 86.834450,107.472595 86.625504,105.978630 
	C86.369576,104.148758 83.711708,102.654816 82.092361,101.015625 
z"/>
<path fill="#073C1C" opacity="1.000000" stroke="none" 
	d="
M87.970680,86.580856 
	C86.211105,86.687447 84.468445,86.385185 82.342674,86.051788 
	C82.000519,83.094589 82.041466,80.168518 82.546188,77.385994 
	C83.300766,77.668068 83.591576,77.806602 83.882378,77.945137 
	C86.100136,80.263596 88.965256,82.259026 87.970680,86.580856 
z"/>
<path fill="#2E854A" opacity="1.000000" stroke="none" 
	d="
M85.994507,112.992386 
	C86.178139,112.365463 86.208557,111.628212 86.568558,111.128296 
	C91.415001,104.398117 90.307983,101.544365 81.450569,99.012100 
	C81.064423,98.566010 81.045647,98.122009 81.051765,97.345619 
	C84.435616,98.615967 88.120941,99.775414 91.064377,101.942528 
	C94.188644,104.242775 92.960472,107.468811 91.041382,110.634598 
	C91.000000,111.000000 91.000916,111.001274 90.657059,111.034134 
	C88.873634,111.708794 87.434074,112.350586 85.994507,112.992386 
z"/>
<path fill="#0B5228" opacity="1.000000" stroke="none" 
	d="
M31.922039,99.680275 
	C28.149258,103.001373 28.207642,106.690704 30.396799,110.675293 
	C31.094240,111.944733 31.940050,113.132668 32.857964,114.680267 
	C27.902794,113.882149 24.692875,108.007042 26.541073,103.038895 
	C27.220629,101.212143 28.132397,99.471786 28.987022,97.317581 
	C29.948666,97.764839 30.861532,98.586533 31.922039,99.680275 
z"/>
<path fill="#399554" opacity="1.000000" stroke="none" 
	d="
M82.038651,101.331650 
	C83.711708,102.654816 86.369576,104.148758 86.625504,105.978630 
	C86.834450,107.472595 84.298378,109.492523 82.741409,111.039803 
	C81.757645,112.017426 80.336510,112.554947 78.680023,113.640427 
	C77.500221,113.992226 76.751930,113.993462 76.002655,113.741089 
	C76.000305,113.318428 75.998932,113.149361 75.997559,112.980286 
	C77.951958,111.528297 79.990349,110.174469 81.835884,108.595245 
	C83.504753,107.167183 85.260506,105.483398 81.380188,104.048462 
	C81.358582,103.226341 81.671768,102.437012 82.038651,101.331650 
z"/>
<path fill="#135E30" opacity="1.000000" stroke="none" 
	d="
M98.349190,116.963531 
	C100.542542,113.551643 103.116096,110.126030 105.605095,106.640060 
	C105.947144,106.161011 105.869148,105.382050 105.988403,104.358002 
	C106.462868,103.669800 106.934547,103.365532 107.703415,103.060875 
	C109.012543,110.439888 104.620544,114.196747 98.349190,116.963531 
z"/>
<path fill="#50BA69" opacity="1.000000" stroke="none" 
	d="
M72.979836,109.976959 
	C71.238609,109.679993 69.497375,109.383034 67.181458,108.764618 
	C66.429794,106.939156 66.252831,105.435165 66.075859,103.931168 
	C68.771568,104.639580 71.467270,105.347992 74.520325,106.415771 
	C74.245049,107.842407 73.612442,108.909683 72.979836,109.976959 
z"/>
<path fill="#247741" opacity="1.000000" stroke="none" 
	d="
M98.622299,103.032509 
	C99.088730,108.372589 96.500801,111.889145 91.352409,113.587418 
	C90.999680,112.499466 91.000298,111.750366 91.000916,111.001274 
	C91.000916,111.001274 91.000000,111.000000 91.000702,111.000458 
	C94.969475,110.153778 95.812187,107.157707 96.022125,103.320389 
	C96.774277,102.951614 97.513527,102.980118 98.622299,103.032509 
z"/>
<path fill="#FFFFFF" opacity="1.000000" stroke="none" 
	d="
M83.941650,77.571091 
	C83.591576,77.806602 83.300766,77.668068 82.913239,77.292160 
	C83.385201,72.526840 83.953888,67.998886 84.522575,63.470932 
	C85.061028,63.540779 85.599472,63.610622 86.137924,63.680470 
	C84.376129,68.066048 89.169327,73.200798 83.941650,77.571091 
z"/>
<path fill="#47AB60" opacity="1.000000" stroke="none" 
	d="
M65.890762,103.687164 
	C66.252831,105.435165 66.429794,106.939156 66.803253,108.723244 
	C65.020699,108.650955 63.041656,108.298576 61.062607,107.946198 
	C61.618793,106.151169 62.174980,104.356140 62.879627,102.251465 
	C63.920616,102.442276 64.813141,102.942719 65.890762,103.687164 
z"/>
<path fill="#10582D" opacity="1.000000" stroke="none" 
	d="
M54.996750,87.999222 
	C57.222416,90.484993 54.945091,91.253960 53.309521,91.722771 
	C51.252766,92.312302 48.588650,93.466476 48.503307,89.331512 
	C50.934910,88.662148 52.965828,88.330688 54.996750,87.999222 
z"/>
<path fill="#47AB60" opacity="1.000000" stroke="none" 
	d="
M73.352905,109.980637 
	C73.612442,108.909683 74.245049,107.842407 74.922714,106.460693 
	C76.390175,105.750893 77.812576,105.355537 79.606354,104.934814 
	C77.893799,106.601059 75.809891,108.292694 73.352905,109.980637 
z"/>
<path fill="#054821" opacity="1.000000" stroke="none" 
	d="
M54.980053,87.703384 
	C52.965828,88.330688 50.934910,88.662148 48.495399,88.989037 
	C48.077293,88.541252 48.067783,88.098045 48.456039,87.318199 
	C50.593334,86.644333 52.332863,86.307091 54.072392,85.969856 
	C54.369381,86.449089 54.666367,86.928314 54.980053,87.703384 
z"/>
<path fill="#04411B" opacity="1.000000" stroke="none" 
	d="
M54.046097,85.600876 
	C52.332863,86.307091 50.593334,86.644333 48.478073,86.986115 
	C50.162022,82.724136 51.855305,82.220863 54.046097,85.600876 
z"/>
<path fill="#023714" opacity="1.000000" stroke="none" 
	d="
M111.977448,84.733704 
	C111.984894,84.991890 111.533737,84.998726 111.308945,85.002106 
	C111.110222,84.672836 111.250984,84.399216 111.713547,84.072952 
	C111.937096,84.132683 111.953545,84.304092 111.977448,84.733704 
z"/>
<path fill="#011D04" opacity="1.000000" stroke="none" 
	d="
M22.108381,125.220711 
	C22.321207,125.097130 22.580830,125.276131 22.890852,125.753891 
	C22.674570,125.885178 22.412546,125.708725 22.108381,125.220711 
z"/>
<path fill="#023714" opacity="1.000000" stroke="none" 
	d="
M77.000946,131.005493 
	C72.614441,131.005753 68.227943,131.005997 63.420792,130.753235 
	C63.000294,130.332123 63.000446,130.164032 63.168060,129.750732 
	C63.891472,129.335693 64.447418,129.165863 65.451378,128.996826 
	C68.598572,128.997192 71.297737,128.996765 74.335144,128.999420 
	C75.448692,129.333649 76.224007,129.664764 76.999611,130.248291 
	C77.000252,130.668961 77.000603,130.837234 77.000946,131.005493 
z"/>
<path fill="#00300E" opacity="1.000000" stroke="none" 
	d="
M45.248436,129.275726 
	C45.261917,128.504456 45.524342,128.013000 46.250465,127.263023 
	C48.809586,127.668037 50.905006,128.331573 53.000481,129.328476 
	C53.001591,130.106186 53.002647,130.550522 53.003708,130.994873 
	C50.501598,130.515091 47.999489,130.035309 45.248436,129.275726 
z"/>
<path fill="#012F0E" opacity="1.000000" stroke="none" 
	d="
M98.662109,126.994965 
	C99.163269,126.996071 99.332047,126.998650 99.754044,127.005951 
	C97.934258,128.006516 95.861244,129.002365 93.393890,129.748474 
	C92.999397,129.331863 92.999245,129.165024 92.999435,128.747681 
	C92.999718,128.330200 92.999641,128.163193 92.999557,127.996170 
	C93.442802,127.995651 93.886055,127.995140 94.960709,127.975983 
	C96.061409,127.637619 96.530708,127.317902 97.000000,126.998184 
	C97.443245,126.997597 97.886482,126.997009 98.662109,126.994965 
z"/>
<path fill="#00300E" opacity="1.000000" stroke="none" 
	d="
M77.248520,131.281143 
	C77.000603,130.837234 77.000252,130.668961 77.437119,130.248962 
	C79.915466,129.992249 81.956589,129.987274 83.998863,130.236542 
	C84.000214,130.660278 84.000412,130.829773 84.000610,130.999268 
	C81.832436,131.185104 79.664261,131.370956 77.248520,131.281143 
z"/>
<path fill="#023714" opacity="1.000000" stroke="none" 
	d="
M53.403328,130.996094 
	C53.002647,130.550522 53.001591,130.106186 53.109482,129.108582 
	C53.420650,128.282639 53.683292,128.094131 54.006355,127.989784 
	C54.755096,127.992256 55.503834,127.994736 56.626865,128.327499 
	C57.001511,129.100113 57.001869,129.542435 57.001083,130.237488 
	C56.999645,130.658737 56.999348,130.827225 56.999050,130.995728 
	C55.933685,130.996246 54.868317,130.996796 53.403328,130.996094 
z"/>
<path fill="#00300E" opacity="1.000000" stroke="none" 
	d="
M57.243511,131.272095 
	C56.999348,130.827225 56.999645,130.658737 57.429298,130.241486 
	C59.572632,129.993805 61.286613,129.994873 63.000595,129.995941 
	C63.000446,130.164032 63.000294,130.332123 62.999660,130.752426 
	C61.162109,131.185898 59.325043,131.367188 57.243511,131.272095 
z"/>
<path fill="#00300E" opacity="1.000000" stroke="none" 
	d="
M92.999084,128.998169 
	C92.999245,129.165024 92.999397,129.331863 92.999619,129.748978 
	C91.257751,130.332214 89.515816,130.665192 87.386650,130.664841 
	C86.999374,129.886230 86.999321,129.440933 87.373474,128.996185 
	C88.496040,128.995178 89.244400,128.993622 90.368637,128.994812 
	C91.496040,128.997757 92.247566,128.997971 92.999084,128.998169 
z"/>
<path fill="#023714" opacity="1.000000" stroke="none" 
	d="
M86.999268,128.995651 
	C86.999321,129.440933 86.999374,129.886230 86.999008,130.664780 
	C86.249115,130.998505 85.499626,130.998978 84.375381,130.999359 
	C84.000412,130.829773 84.000214,130.660278 84.043961,129.913971 
	C85.058365,129.223328 86.028816,129.109482 86.999268,128.995651 
z"/>
<path fill="#002707" opacity="1.000000" stroke="none" 
	d="
M122.343071,119.963577 
	C123.477493,117.700119 125.093689,115.478500 126.415321,113.093643 
	C130.423294,105.861359 129.739197,101.270271 123.946808,95.451347 
	C122.345482,93.842697 120.712959,92.265099 119.046326,90.337433 
	C126.215271,92.250221 130.531158,97.721046 131.438553,104.591843 
	C132.295746,111.082436 128.465240,116.430191 122.343071,119.963577 
z"/>
<path fill="#002707" opacity="1.000000" stroke="none" 
	d="
M117.960579,89.676239 
	C117.362152,89.546486 116.721535,89.095985 116.038010,88.325150 
	C116.636192,88.455040 117.277283,88.905266 117.960579,89.676239 
z"/>
<path fill="#0B5228" opacity="1.000000" stroke="none" 
	d="
M79.003662,124.994812 
	C78.678406,125.099541 78.416222,125.290741 77.710281,125.788795 
	C76.137665,126.009125 75.071877,126.009079 73.556686,126.005508 
	C70.402832,126.004356 67.698364,126.006706 64.661041,126.009735 
	C63.884296,126.012070 63.440414,126.013741 62.996532,126.015411 
	C62.997002,125.844841 62.997475,125.674263 63.167980,125.001511 
	C63.896698,124.324951 64.455383,124.150574 65.470657,123.981384 
	C69.284576,123.990616 72.641907,123.994675 76.374435,123.999344 
	C77.499733,123.999809 78.249855,123.999657 79.000916,124.248337 
	C79.001869,124.497162 79.003662,124.994812 79.003662,124.994812 
z"/>
<path fill="#0B5228" opacity="1.000000" stroke="none" 
	d="
M33.036339,115.356140 
	C37.958694,117.429649 42.920025,119.856552 47.943642,122.636780 
	C43.029060,120.563248 38.052193,118.136391 33.036339,115.356140 
z"/>
<path fill="#04401A" opacity="1.000000" stroke="none" 
	d="
M62.750465,126.288307 
	C63.440414,126.013741 63.884296,126.012070 64.663132,126.382812 
	C64.999847,127.502151 65.001602,128.249084 65.003357,128.996033 
	C64.447418,129.165863 63.891472,129.335693 63.168060,129.750732 
	C61.286613,129.994873 59.572632,129.993805 57.430435,129.988739 
	C57.001869,129.542435 57.001511,129.100113 57.001236,128.325760 
	C58.835678,127.516220 60.670036,127.038712 62.750465,126.288307 
z"/>
<path fill="#04401A" opacity="1.000000" stroke="none" 
	d="
M53.935226,127.626274 
	C53.683292,128.094131 53.420650,128.282639 53.109428,128.775208 
	C50.905006,128.331573 48.809586,127.668037 46.357388,127.004997 
	C45.999641,126.561180 45.998676,126.116875 45.996567,125.339523 
	C48.618313,125.758583 51.241203,126.510674 53.935226,127.626274 
z"/>
<path fill="#135E30" opacity="1.000000" stroke="none" 
	d="
M65.014069,123.976196 
	C64.455383,124.150574 63.896698,124.324951 63.169556,124.745651 
	C62.445759,124.824516 61.890415,124.657043 61.167709,123.870529 
	C61.000092,122.502663 60.999836,121.753853 60.999580,121.005035 
	C60.999580,121.005035 61.000515,120.998100 61.002598,120.990936 
	C62.069794,120.986244 63.134907,120.988708 64.600708,121.363846 
	C65.005615,122.483086 65.009842,123.229645 65.014069,123.976196 
z"/>
<path fill="#10582D" opacity="1.000000" stroke="none" 
	d="
M60.598919,121.003639 
	C60.999836,121.753853 61.000092,122.502663 61.000008,123.626076 
	C59.932785,124.001633 58.865910,124.002594 57.398945,123.631165 
	C56.996239,122.511810 56.993618,121.764847 56.990997,121.017883 
	C58.060085,121.012672 59.129169,121.007462 60.598919,121.003639 
z"/>
<path fill="#10582D" opacity="1.000000" stroke="none" 
	d="
M51.998322,121.009766 
	C51.998810,120.841721 51.999298,120.673676 51.999893,120.253571 
	C53.177589,120.154991 54.355175,120.308456 55.515987,120.905457 
	C55.331421,121.906876 55.163631,122.464760 54.995838,123.022644 
	C54.246727,123.017555 53.497616,123.012474 52.373856,122.674423 
	C51.998909,121.897560 51.998615,121.453667 51.998322,121.009766 
z"/>
<path fill="#0B5228" opacity="1.000000" stroke="none" 
	d="
M55.027420,123.313095 
	C55.163631,122.464760 55.331421,121.906876 55.743408,121.180679 
	C56.154884,121.011749 56.322159,121.011147 56.740215,121.014221 
	C56.993618,121.764847 56.996239,122.511810 56.999081,123.632736 
	C56.352535,123.872314 55.705769,123.737938 55.027420,123.313095 
z"/>
<path fill="#0B5228" opacity="1.000000" stroke="none" 
	d="
M51.665379,121.007416 
	C51.998615,121.453667 51.998909,121.897560 51.999287,122.674637 
	C51.428898,123.155098 50.858425,123.302376 50.143658,123.222733 
	C49.999783,122.553429 50.000202,122.111031 50.000614,121.336914 
	C50.444553,121.005150 50.888493,121.005112 51.665379,121.007416 
z"/>
<path fill="#04401A" opacity="1.000000" stroke="none" 
	d="
M74.006081,126.009026 
	C75.071877,126.009079 76.137665,126.009125 77.603302,126.011162 
	C80.279434,126.196053 82.553024,126.440590 84.832947,126.540421 
	C86.376389,126.607994 87.928734,126.472054 89.738029,127.043495 
	C89.996895,128.103912 89.994820,128.547989 89.992752,128.992065 
	C89.244400,128.993622 88.496040,128.995178 87.373474,128.996185 
	C86.028816,129.109482 85.058365,129.223328 84.042816,129.659729 
	C81.956589,129.987274 79.915466,129.992249 77.436829,129.996552 
	C76.224007,129.664764 75.448692,129.333649 74.336090,128.625946 
	C74.001228,127.502602 74.003654,126.755814 74.006081,126.009026 
z"/>
<path fill="#10582D" opacity="1.000000" stroke="none" 
	d="
M79.408142,124.995628 
	C79.003662,124.994812 79.001869,124.497162 79.000900,123.873520 
	C78.999977,122.500084 79.000008,121.750282 79.416054,121.000549 
	C81.221375,121.000389 82.610687,121.000168 84.023895,121.317566 
	C84.363243,122.417130 84.678696,123.199074 84.994148,123.981010 
	C83.266975,124.319489 81.539803,124.657967 79.408142,124.995628 
z"/>
<path fill="#0B5228" opacity="1.000000" stroke="none" 
	d="
M89.996643,121.995117 
	C90.442924,121.996811 90.889206,121.998505 91.670288,122.002548 
	C90.920258,122.669067 89.835419,123.333244 88.374969,123.664413 
	C87.999588,122.887199 87.999794,122.442986 88.332794,121.998779 
	C89.109276,121.997559 89.552963,121.996338 89.996643,121.995117 
z"/>
<path fill="#10582D" opacity="1.000000" stroke="none" 
	d="
M88.000000,121.998779 
	C87.999794,122.442986 87.999588,122.887199 87.998955,123.664604 
	C87.552689,123.997498 87.106850,123.997192 86.328461,123.588982 
	C85.997177,122.120613 85.998436,121.060158 85.999695,119.999695 
	C85.999695,119.999695 86.000000,120.000000 85.999176,119.998764 
	C86.443031,119.998497 86.887718,119.999458 87.666077,120.334030 
	C87.999840,121.111351 87.999924,121.555069 88.000000,121.998779 
z"/>
<path fill="#135E30" opacity="1.000000" stroke="none" 
	d="
M85.666451,119.997635 
	C85.998436,121.060158 85.997177,122.120613 85.993958,123.577789 
	C85.991989,123.974495 85.493202,123.984749 85.243675,123.982880 
	C84.678696,123.199074 84.363243,122.417130 84.023857,121.067062 
	C84.000023,120.331924 84.000107,120.164917 84.000183,119.997910 
	C84.444527,119.997139 84.888863,119.996353 85.666451,119.997635 
z"/>
<path fill="#023714" opacity="1.000000" stroke="none" 
	d="
M90.368637,128.994812 
	C89.994820,128.547989 89.996895,128.103912 89.999634,127.326569 
	C90.443214,126.993713 90.886131,126.994141 91.661087,126.992271 
	C92.316582,127.094170 92.579414,127.282799 92.890594,127.776016 
	C92.999641,128.163193 92.999718,128.330200 92.999435,128.747681 
	C92.247566,128.997971 91.496040,128.997757 90.368637,128.994812 
z"/>
<path fill="#023714" opacity="1.000000" stroke="none" 
	d="
M96.828873,126.769630 
	C96.530708,127.317902 96.061409,127.637619 95.293137,127.975067 
	C95.548691,127.508881 96.103218,127.024979 96.828873,126.769630 
z"/>
<path fill="#186535" opacity="1.000000" stroke="none" 
	d="
M65.470657,123.981384 
	C65.009842,123.229645 65.005615,122.483086 65.000221,121.362518 
	C65.551025,120.166695 66.102997,119.344872 67.074249,118.253326 
	C67.493538,117.983597 67.988670,117.974846 68.242668,117.988480 
	C68.666153,118.005066 68.835632,118.008018 69.338966,118.012039 
	C70.117958,118.005074 70.563103,117.997025 71.341568,117.987976 
	C72.119347,117.987282 72.563789,117.987595 73.110840,118.212769 
	C73.413391,118.716156 73.677406,118.905197 74.336227,119.005417 
	C75.107956,119.005165 75.548943,119.004257 75.993538,119.334076 
	C75.998604,120.105644 76.000061,120.546501 76.000656,121.365509 
	C75.999619,122.495361 75.999428,123.247047 75.999245,123.998734 
	C72.641907,123.994675 69.284576,123.990616 65.470657,123.981384 
z"/>
<path fill="#338C4E" opacity="1.000000" stroke="none" 
	d="
M73.008232,117.987915 
	C72.563789,117.987595 72.119347,117.987282 71.174126,117.740555 
	C70.113525,117.326378 69.553703,117.158600 68.774323,117.095779 
	C68.279648,117.395561 68.090942,117.653595 67.988670,117.974846 
	C67.988670,117.974846 67.493538,117.983597 67.246002,117.990265 
	C66.259895,117.985222 65.521317,117.973495 64.415329,117.943207 
	C64.200142,116.741875 64.352371,115.559097 64.250473,114.185501 
	C63.997242,113.825150 63.998135,113.655624 64.001106,113.231552 
	C67.694427,112.981621 71.385674,112.986252 75.537239,112.985588 
	C75.998932,113.149361 76.000305,113.318428 75.746155,113.932892 
	C74.987167,115.562653 74.483696,116.747002 73.987259,117.947311 
	C73.994293,117.963272 73.975479,117.978004 73.733643,117.978462 
	C73.491814,117.978920 73.008232,117.987915 73.008232,117.987915 
z"/>
<path fill="#338C4E" opacity="1.000000" stroke="none" 
	d="
M57.651726,99.039360 
	C57.755798,99.587334 57.652718,100.323158 57.231060,100.723137 
	C51.874451,105.804489 51.857048,105.962212 56.949471,111.655457 
	C54.715042,109.935089 52.427795,107.872337 50.140549,105.809586 
	C52.525871,103.563431 54.911194,101.317276 57.651726,99.039360 
z"/>
<path fill="#338C4E" opacity="1.000000" stroke="none" 
	d="
M60.036224,112.332123 
	C60.634670,112.458488 61.277233,112.904686 61.964043,113.670807 
	C61.365635,113.544472 60.722992,113.098213 60.036224,112.332123 
z"/>
<path fill="#135E30" opacity="1.000000" stroke="none" 
	d="
M88.332794,121.998779 
	C87.999924,121.555069 87.999840,121.111351 87.999763,120.334885 
	C88.468857,119.682648 88.937950,119.363167 89.705750,119.025696 
	C90.002518,119.754570 90.000587,120.501434 89.997650,121.621704 
	C89.552963,121.996338 89.109276,121.997559 88.332794,121.998779 
z"/>
<path fill="#135E30" opacity="1.000000" stroke="none" 
	d="
M94.315399,118.955544 
	C94.449463,118.357491 94.904915,117.720383 95.681351,117.043610 
	C95.547142,117.641464 95.091972,118.278976 94.315399,118.955544 
z"/>
<path fill="#287C45" opacity="1.000000" stroke="none" 
	d="
M90.657059,111.034134 
	C91.000298,111.750366 90.999680,112.499466 90.998711,113.623055 
	C88.914764,114.662422 86.831169,115.327293 83.973869,115.996155 
	C82.131866,116.000099 81.063560,116.000046 79.775635,115.891289 
	C79.283089,115.580498 79.097466,115.316917 78.999153,114.991844 
	C81.087746,114.327003 83.176331,113.662155 85.629715,112.994843 
	C87.434074,112.350586 88.873634,111.708794 90.657059,111.034134 
z"/>
<path fill="#247741" opacity="1.000000" stroke="none" 
	d="
M79.995262,115.999992 
	C81.063560,116.000046 82.131866,116.000099 83.601204,116.001038 
	C84.000923,116.750107 83.999603,117.498291 83.623184,118.622406 
	C82.496353,118.997307 81.744637,118.996277 80.747543,118.995346 
	C80.502182,118.995445 80.011292,118.995117 80.008316,118.660583 
	C80.002998,117.879799 80.000648,117.433556 79.996681,116.740486 
	C79.995071,116.493660 79.995262,115.999992 79.995262,115.999992 
z"/>
<path fill="#186535" opacity="1.000000" stroke="none" 
	d="
M80.992912,118.995247 
	C81.744637,118.996277 82.496353,118.997307 83.623703,118.996552 
	C83.999710,119.162010 84.000092,119.329247 84.000328,119.747192 
	C84.000107,120.164917 84.000023,120.331924 83.999969,120.749435 
	C82.610687,121.000168 81.221375,121.000389 79.416039,121.000168 
	C79.000015,120.999725 79.001266,120.986000 79.154747,120.743538 
	C79.869789,119.999130 80.431351,119.497192 80.992912,118.995247 
z"/>
<path fill="#2E854A" opacity="1.000000" stroke="none" 
	d="
M79.775635,115.891289 
	C79.995262,115.999992 79.995071,116.493660 79.611679,116.749283 
	C77.478928,117.313721 75.729584,117.622536 73.980232,117.931351 
	C74.483696,116.747002 74.987167,115.562653 75.747139,114.186501 
	C76.751930,113.993462 77.500221,113.992226 78.622574,113.985779 
	C78.997772,114.149147 78.998894,114.317726 78.999580,114.739075 
	C79.097466,115.316917 79.283089,115.580498 79.775635,115.891289 
z"/>
<path fill="#054821" opacity="1.000000" stroke="none" 
	d="
M73.556686,126.005508 
	C74.003654,126.755814 74.001228,127.502602 73.997856,128.622864 
	C71.297737,128.996765 68.598572,128.997192 65.451378,128.996826 
	C65.001602,128.249084 64.999847,127.502151 64.995995,126.382141 
	C67.698364,126.006706 70.402832,126.004356 73.556686,126.005508 
z"/>
<path fill="#135E30" opacity="1.000000" stroke="none" 
	d="
M76.374435,123.999344 
	C75.999428,123.247047 75.999619,122.495361 76.375549,121.367706 
	C77.501289,120.989830 78.251282,120.987915 79.001266,120.986000 
	C79.001266,120.986000 79.000015,120.999725 79.000031,121.000107 
	C79.000008,121.750282 78.999977,122.500084 78.999954,123.624695 
	C78.249855,123.999657 77.499733,123.999809 76.374435,123.999344 
z"/>
<path fill="#1F6F3B" opacity="1.000000" stroke="none" 
	d="
M73.987259,117.947311 
	C75.729584,117.622536 77.478928,117.313721 79.613281,116.996109 
	C80.000648,117.433556 80.002998,117.879799 79.606033,118.662491 
	C78.134453,119.000412 77.062187,119.001884 75.989929,119.003357 
	C75.548943,119.004257 75.107956,119.005165 74.330872,118.748627 
	C73.988335,118.320129 73.981903,118.149063 73.975479,117.978004 
	C73.975479,117.978004 73.994293,117.963272 73.987259,117.947311 
z"/>
<path fill="#20713D" opacity="1.000000" stroke="none" 
	d="
M75.993538,119.334076 
	C77.062187,119.001884 78.134453,119.000412 79.609001,118.997025 
	C80.011292,118.995117 80.502182,118.995445 80.747543,118.995346 
	C80.431351,119.497192 79.869789,119.999130 79.154747,120.743538 
	C78.251282,120.987915 77.501289,120.989830 76.376411,120.989548 
	C76.000061,120.546501 75.998604,120.105644 75.993538,119.334076 
z"/>
<path fill="#247741" opacity="1.000000" stroke="none" 
	d="
M68.993881,116.990822 
	C69.553703,117.158600 70.113525,117.326378 70.840790,117.741570 
	C70.563103,117.997025 70.117958,118.005074 69.336128,117.756943 
	C68.997581,117.330780 68.995735,117.160797 68.993881,116.990822 
z"/>
<path fill="#287C45" opacity="1.000000" stroke="none" 
	d="
M68.774323,117.095779 
	C68.995735,117.160797 68.997581,117.330780 69.002274,117.755859 
	C68.835632,118.008018 68.666153,118.005066 68.242668,117.988480 
	C68.090942,117.653595 68.279648,117.395561 68.774323,117.095779 
z"/>
<path fill="#247741" opacity="1.000000" stroke="none" 
	d="
M73.733643,117.978462 
	C73.981903,118.149063 73.988335,118.320129 74.000137,118.747978 
	C73.677406,118.905197 73.413391,118.716156 73.110840,118.212769 
	C73.008232,117.987915 73.491814,117.978920 73.733643,117.978462 
z"/>
</svg>